<svg version="1.2" xmlns="http://www.w3.org/2000/svg" viewBox="0 0 1024 1024" width="1024" height="1024"><style>.a{fill:#020303}.b{fill:#020202}</style><path class="a" d="m141 296q17.7-0.1 35.4-0.2 8.2 0 16.4 0 8-0.1 15.9-0.1 3.1 0 6.1 0c35.5-0.3 65.9 8.5 91.8 33.8 25.8 26.3 39.1 63.2 53.4 96.5 0.6 1.5 0.6 1.5 1.3 3q5.9 13.9 11.9 27.8 8.9 20.8 18.1 41.6 6.4 14.5 12.6 29 0.6 1.4 1.2 2.9 2.9 6.9 5.8 13.7c7.6 20.7 7.6 20.7 23.1 35 5.7 0.7 9.3 0.1 14-3.3 9.1-7.5 12.8-18.7 17.1-29.3q1.1-2.7 2.3-5.4 2.2-5.4 4.4-10.8 3.1-7.3 6.1-14.5 0.9-2.2 1.8-4.3 0.5-1 0.9-2.1 2-4.7 4-9.4 0.6-1.6 1.2-3.1c0.6-1.4 0.6-1.4 1.2-2.8 0.6-1.3 0.6-1.3 1.2-2.7 2.5-7-2.2-14.7-4.9-21q-0.8-1.7-1.5-3.4c-4.6-10.7-9.6-21.3-14.5-31.8-3.2-6.9-6.4-13.9-9.5-20.8q-0.8-1.8-1.6-3.6-1.2-2.8-2.5-5.6-5.1-11.5-10.2-22.9-1.8-3.8-3.5-7.6-5.3-11.8-10.6-23.6-2.4-5.3-4.8-10.5-1.1-2.5-2.2-5-6.4-14.2-12.7-28.6-0.7-1.6-1.4-3.2-1.6-3.8-3.3-7.7 22-0.1 44-0.2 10.2 0 20.4-0.1 9.9-0.1 19.8-0.1 3.7 0 7.5 0c30.4-0.3 59.1 5.2 81.8 26.9q2.3 2.2 4.5 4.5 1.2 1.2 2.5 2.4c20.7 21.6 30.9 53.4 41.7 80.6q1.1 2.6 2.1 5.3 2.2 5.5 4.4 11 3.4 8.4 6.7 16.8 0.6 1.3 1.1 2.7 4.5 11.3 9.1 22.7 2.8 7.1 5.7 14.3c8.1 20.2 16.2 40.4 24.4 60.5 0.5 1.2 0.5 1.2 1 2.4 19.6 49.4 19.6 49.4 51.3 91.3-28.5 66.9-28.5 66.9-62.3 81q-1.3 0.5-2.7 1-1.3 0.5-2.6 1c-17.9 5.5-36.9 2.5-53.3-5.8-29.3-17.2-42-47.9-55.2-77.6-3.9-8.8-7.8-17.5-11.7-26.2q-1.9-4.2-3.8-8.4-1.2-2.6-2.4-5.2-0.5-1.2-1.1-2.5c-1.9-4.1-3.8-8.2-5.9-12.3q-0.5 1.1-1 2.3c-32.8 76.1-32.8 76.1-46 94.7q-1.1 1.6-2.3 3.2c-16.7 23-40.5 40.9-68.9 46.1-26.5 3.4-50.3-3.6-71.8-19.3-3.5-2.8-6.8-5.9-10-9q-1.1-1-2.2-2c-7.3-6.7-12.6-14.7-17.8-23q-0.6-0.9-1.2-1.9c-9.3-15-15.9-31.6-22.9-47.8q-3.9-8.7-7.8-17.5-5.1-11.6-10.2-23.2-14.3-32.5-28.9-64.9-4.5-9.9-8.9-19.9c-0.7-1.5-0.7-1.5-1.4-3.1q-1.9-4.3-3.8-8.6-5.3-11.9-10.5-23.8-0.7-1.4-1.3-2.9-9.7-21.8-19.5-43.4-7.4-16.5-14.7-33c-6.4-14.5-13-29-19.6-43.4q-6.8-14.6-13.4-29.3-1-2-1.9-4.1-1.3-2.8-2.5-5.6-0.7-1.6-1.5-3.2c-1-2.4-1-2.4-1-3.4z"/><path class="b" d="m768.5 297.9q1.8 0 3.7 0 5.1 0 10.2 0 5.3 0 10.6 0 10 0 20.1 0 11.4 0 22.9 0 23.5 0.1 47 0.1-2.4 5.6-4.8 11.1-0.7 1.6-1.4 3.2c-11.5 26.4-23.3 52.7-35.1 79-12.9 28.7-25.7 57.4-38.2 86.2-9 20.7-18.2 41.4-27.4 62q-1.6 3.5-3.1 7.1c-11.9 26.5-11.9 26.5-18 39.4-2.8-3.3-4.3-6.7-5.9-10.8q-0.4-1-0.8-2-0.9-2.3-1.8-4.5-2-4.9-3.9-9.9-1.1-2.7-2.2-5.3-5.9-14.8-11.9-29.5-2-4.6-3.9-9.3-6.2-15.3-12.5-30.5c-39.7-96.7-39.7-96.7-23.5-135.9 9.5-21.8 24.5-36.4 46.4-45.5 4.5-1.8 9.2-3 14-3.8q1.4-0.3 2.9-0.5c5.5-0.8 11-0.6 16.6-0.6z"/></svg>